<?xml version="1.0" encoding="UTF-8" standalone="no"?>
<!-- Created with Inkscape (http://www.inkscape.org/) -->

<svg
   version="1.1"
   id="svg148"
   width="629.56555"
   height="512"
   viewBox="0 0 629.56554 512"
   sodipodi:docname="logo.svg"
   inkscape:version="1.2.2 (732a01da63, 2022-12-09, custom)"
   xmlns:inkscape="http://www.inkscape.org/namespaces/inkscape"
   xmlns:sodipodi="http://sodipodi.sourceforge.net/DTD/sodipodi-0.dtd"
   xmlns="http://www.w3.org/2000/svg"
   xmlns:svg="http://www.w3.org/2000/svg">
  <defs
     id="defs152">
    <clipPath
       clipPathUnits="userSpaceOnUse"
       id="clipPath180">
      <path
         d="M 0,1080 H 1413.02 V 0 H 0 Z"
         id="path178" />
    </clipPath>
  </defs>
  <sodipodi:namedview
     id="namedview150"
     pagecolor="#505050"
     bordercolor="#ffffff"
     borderopacity="1"
     inkscape:showpageshadow="0"
     inkscape:pageopacity="0"
     inkscape:pagecheckerboard="1"
     inkscape:deskcolor="#505050"
     showgrid="false"
     inkscape:zoom="0.72113221"
     inkscape:cx="314.78278"
     inkscape:cy="255.84767"
     inkscape:window-width="1360"
     inkscape:window-height="737"
     inkscape:window-x="0"
     inkscape:window-y="0"
     inkscape:window-maximized="1"
     inkscape:current-layer="g10140" />
  <g
     id="g156"
     inkscape:groupmode="layer"
     inkscape:label="Page 1"
     transform="matrix(1.3333333,0,0,-1.3333333,-627.88478,988.71732)">
    <g
       id="g10140"
       transform="matrix(0.97880936,0,0,0.97880936,9.978961,15.713666)">
      <path
         d="M 643.636,608.224 H 769.038 V 733.64 H 643.636 Z m 133.301,-7.9 H 635.736 v 141.214 h 141.201 z"
         style="fill:#f9b100;fill-opacity:1;fill-rule:nonzero;stroke:none"
         id="path172" />
      <g
         id="g174">
        <g
           id="g176"
           clip-path="url(#clipPath180)">
          <g
             id="g182"
             transform="translate(667.8545,711.3354)">
            <path
               d="m 0,0 c -1.103,0 -2.035,-0.932 -2.035,-2.035 v -49.838 c 0,-1.102 0.932,-2.035 2.035,-2.035 h 50.18 c 1.103,0 2.035,0.933 2.035,2.035 V -2.035 C 52.215,-0.932 51.283,0 50.18,0 Z M 50.18,-61.807 H 0 c -5.478,0 -9.935,4.456 -9.935,9.934 v 49.838 c 0,5.478 4.457,9.934 9.935,9.934 h 50.18 c 5.477,0 9.934,-4.456 9.934,-9.934 v -49.838 c 0,-5.478 -4.457,-9.934 -9.934,-9.934"
               style="fill:#f9b100;fill-opacity:1;fill-rule:nonzero;stroke:none"
               id="path184" />
          </g>
          <g
             id="g186"
             transform="translate(695.085,684.2046)">
            <path
               d="m 0,0 c -1.103,0 -2.035,-0.932 -2.035,-2.035 v -49.838 c 0,-1.102 0.932,-2.034 2.035,-2.034 h 50.18 c 1.103,0 2.035,0.932 2.035,2.034 V -2.035 C 52.215,-0.932 51.283,0 50.18,0 Z M 50.18,-61.807 H 0 c -5.478,0 -9.935,4.456 -9.935,9.934 v 49.838 c 0,5.478 4.457,9.934 9.935,9.934 h 50.18 c 5.477,0 9.934,-4.456 9.934,-9.934 v -49.838 c 0,-5.478 -4.457,-9.934 -9.934,-9.934"
               style="fill:#f9b100;fill-opacity:1;fill-rule:nonzero;stroke:none"
               id="path188" />
          </g>
        </g>
      </g>
      <path
         id="text192"
         style="font-variant:normal;font-weight:normal;font-stretch:normal;font-size:215.452px;font-family:Conneqt;-inkscape-font-specification:ConneqtRegular;writing-mode:lr-tb;fill:#d39100;fill-opacity:1;fill-rule:nonzero;stroke:none"
         d="m 259.18801,-154.69433 c -21.83244,0 -40.50456,7.75652 -56.01709,23.26905 -15.51252,15.51253 -23.26904,34.184641 -23.26904,56.017088 0,21.832447 7.75652,40.576261 23.26904,56.232423 15.51253,15.5125286 34.18465,23.269044 56.01709,23.269044 22.55062,0 41.00765,-8.0433055 55.3711,-24.130372 13.21438,-14.794355 19.82227,-33.251379 19.82227,-55.371095 0,-3.878132 -0.1434,-6.822125 -0.43067,-8.833008 h -69.5918 v 26.285157 h 39.85987 c -2.87269,10.054416 -8.1871,18.312814 -15.94336,24.776368 -7.61263,6.319919 -17.30937,9.480469 -29.08741,9.480469 -14.21981,0 -26.35574,-5.027615 -36.41015,-15.082032 -10.05442,-10.198051 -15.08203,-22.407136 -15.08203,-36.626954 0,-14.219817 5.02761,-26.357208 15.08203,-36.411618 10.05441,-10.19805 22.19034,-15.29737 36.41015,-15.29737 8.18717,0 15.87199,1.86707 23.05372,5.60157 7.32536,3.73449 13.4299,8.83381 18.31347,15.29736 l 22.83838,-15.94336 c -7.46899,-10.19805 -16.87748,-18.16966 -28.22461,-23.91504 -11.34712,-5.74538 -23.34112,-8.61768 -35.98096,-8.61768 z m -239.365724,4.09278 V 5.0142811e-4 h 64.850099 c 20.396105,0 37.847895,-7.32633022811 52.354985,-21.97705142811 14.50708,-14.794355 21.76025,-32.604636 21.76025,-53.431642 0,-20.827005 -7.25317,-38.565588 -21.76025,-53.216308 -14.36345,-14.65072 -31.81525,-21.97705 -52.354985,-21.97705 z m 343.429694,0 V 5.0142811e-4 h 64.85157 c 20.3961,0 37.84789,-7.32633022811 52.35498,-21.97705142811 14.50708,-14.794355 21.76025,-32.604636 21.76025,-53.431642 0,-20.827005 -7.25317,-38.565588 -21.76025,-53.216308 -14.36345,-14.65072 -31.81525,-21.97705 -52.35498,-21.97705 z m -315.637213,26.71728 h 36.19629 c 13.070741,0 24.202903,4.73936 33.395513,14.21924 9.33624,9.47988 14.0039,20.898828 14.0039,34.256838 0,13.358011 -4.66766,24.776959 -14.0039,34.256837 -9.19261,9.479878 -20.324772,14.219239 -33.395513,14.219239 h -36.19629 z m 343.431163,0 h 36.19482 c 13.07074,0 24.2029,4.73936 33.39551,14.21924 9.33625,9.47988 14.00391,20.898828 14.00391,34.256838 0,13.358011 -4.66766,24.776959 -14.00391,34.256837 -9.19261,9.479878 -20.32477,14.219239 -33.39551,14.219239 h -36.19482 z"
         transform="matrix(1,0,0,-1,451.0913,411.626)" />
      <path
         id="text196"
         style="font-variant:normal;font-weight:normal;font-stretch:normal;font-size:39.4995px;font-family:Conneqt;-inkscape-font-specification:ConneqtRegular;writing-mode:lr-tb;fill:#000000;fill-opacity:1;fill-rule:nonzero;stroke:none"
         d="m 304.58005,-28.360859 c -4.00261,0 -7.42459,1.421664 -10.26856,4.265625 -2.84396,2.843962 -4.26708,6.267408 -4.26708,10.27002 0,4.0026122 1.42312,7.4392766 4.26708,10.3095708 2.84397,2.84396116 6.26595,4.26562509 10.26856,4.26562509 4.16061,0 7.5444,-1.46131735 10.15137,-4.38427749 2.42263,-2.7122963 3.63427,-6.1093072 3.63427,-10.1909184 0,-0.71099 -0.0264,-1.249991 -0.0791,-1.618652 h -12.75732 v 4.817871 h 7.30664 c -0.52666,1.8433082 -1.50038,3.3574968 -2.92236,4.5424806 -1.39565,1.1586509 -3.1742,1.7387696 -5.3335,1.7387696 -2.60696,0 -4.83199,-0.9223169 -6.67529,-2.7656251 -1.84331,-1.8696411 -2.76416,-4.1078791 -2.76416,-6.7148441 0,-2.606964 0.92085,-4.831985 2.76416,-6.675293 1.8433,-1.843308 4.06833,-2.76416 6.67529,-2.76416 1.50098,0 2.91089,0.342198 4.22754,1.026855 1.34298,0.658325 2.4621,1.579177 3.35742,2.764161 l 4.18652,-2.882813 c -1.36931,-1.869641 -3.09352,-3.330958 -5.17382,-4.384277 -2.08031,-1.079652 -4.28036,-1.620118 -6.59766,-1.620118 z m 74.5752,0 c -4.00261,0 -7.42606,1.421664 -10.27002,4.265625 -2.84396,2.843962 -4.26563,6.267408 -4.26563,10.27002 0,4.0026122 1.42167,7.4392766 4.26563,10.3095708 2.84396,2.84396116 6.26741,4.26562509 10.27002,4.26562509 4.00261,0 7.42606,-1.42166393 10.27002,-4.26562509 2.87029,-2.8702942 4.30517,-6.3069586 4.30517,-10.3095708 0,-4.002612 -1.43488,-7.426058 -4.30517,-10.27002 -2.84396,-2.843961 -6.26741,-4.265625 -10.27002,-4.265625 z m -289.96583,0.197754 c -3.660284,0 -6.490394,0.72405 -8.4917,2.172364 -1.843308,1.369314 -2.765625,3.17283 -2.765625,5.411133 0,1.079651 0.211485,2.05484 0.632813,2.923828 0.44766,0.868988 0.947007,1.57982 1.5,2.132812 0.579325,0.52666 1.395899,1.052442 2.449218,1.579102 1.053319,0.526659 1.922765,0.908511 2.607422,1.145508 0.710991,0.236996 1.697932,0.554224 2.961914,0.949218 0.05267,0 0.09232,0.01175 0.118653,0.03809 0.05267,0.02633 0.09232,0.03955 0.118652,0.03955 0.05267,0 0.105537,0.01322 0.158203,0.03955 1.105985,0.342329 1.962213,0.63312 2.567871,0.870117 0.631992,0.210664 1.30317,0.499991 2.014161,0.8686526 0.71099,0.3423286 1.22502,0.7506158 1.541015,1.2246094 0.342329,0.4476605 0.512696,0.9602254 0.512696,1.5395508 0,2.1593038 -2.079625,3.2402344 -6.240235,3.2402344 -2.870294,0 -5.8458,-0.84301 -8.926758,-2.5283203 l -2.567871,4.0678712 c 3.554951,2.05397192 7.320596,3.08056645 11.296875,3.08056645 2.132971,0 4.042229,-0.23645571 5.727539,-0.71044924 1.685311,-0.5003265 3.106975,-1.38299001 4.265625,-2.64697271 1.158651,-1.2639828 1.737302,-2.8692312 1.737302,-4.8178712 0,-1.000653 -0.21002,-1.9229699 -0.631344,-2.7656254 -0.421328,-0.842655 -0.92214,-1.527051 -1.501465,-2.053711 -0.552993,-0.552992 -1.343132,-1.08024 -2.370118,-1.580566 -1.000653,-0.52666 -1.868633,-0.921729 -2.605957,-1.185059 -0.71099,-0.263329 -1.659742,-0.579092 -2.844726,-0.947754 -0.184331,-0.05267 -0.447222,-0.131972 -0.789551,-0.237304 -1.026986,-0.315996 -1.869996,-0.592105 -2.52832,-0.829102 -0.631992,-0.236997 -1.289953,-0.526324 -1.97461,-0.868652 -0.658324,-0.342329 -1.145918,-0.737398 -1.461914,-1.185059 -0.315996,-0.447661 -0.473145,-0.96169 -0.473145,-1.541016 0,-0.868988 0.48613,-1.566602 1.46045,-2.093261 0.97432,-0.52666 2.397449,-0.789551 4.26709,-0.789551 2.65963,0 5.463304,0.816574 8.412598,2.449219 l 2.488769,-3.950684 c -3.528618,-2.027639 -7.084243,-3.041016 -10.665527,-3.041016 z m 127.03125,0 c -3.66028,0 -6.49186,0.72405 -8.49316,2.172364 -1.84331,1.369314 -2.76416,3.17283 -2.76416,5.411133 0,1.079651 0.21002,2.05484 0.63135,2.923828 0.44766,0.868988 0.94847,1.57982 1.50146,2.132812 0.57933,0.52666 1.3959,1.052442 2.44922,1.579102 1.05332,0.526659 1.9213,0.908511 2.60596,1.145508 0.71099,0.236996 1.69939,0.554224 2.96338,0.949218 0.0527,0 0.0923,0.01175 0.11865,0.03809 0.0527,0.02633 0.0908,0.03955 0.11719,0.03955 0.0527,0 0.10553,0.01322 0.1582,0.03955 1.10598,0.342329 1.96221,0.63312 2.56787,0.870117 0.63199,0.210664 1.30317,0.499991 2.01416,0.8686526 0.71099,0.3423286 1.22502,0.7506158 1.54102,1.2246094 0.34232,0.4476605 0.51269,0.9602254 0.51269,1.5395508 0,2.1593038 -2.07962,3.2402344 -6.24023,3.2402344 -2.8703,0 -5.8458,-0.84301 -8.92676,-2.5283203 l -2.56787,4.0678712 c 3.55495,2.05397192 7.32059,3.08056645 11.29687,3.08056645 2.13297,0 4.04223,-0.23645571 5.72754,-0.71044924 1.68531,-0.5003265 3.10698,-1.38299001 4.26563,-2.64697271 1.15865,-1.2639828 1.73877,-2.8692312 1.73877,-4.8178712 0,-1.000653 -0.21149,-1.9229699 -0.63282,-2.7656254 -0.42132,-0.842655 -0.92067,-1.527051 -1.5,-2.053711 -0.55299,-0.552992 -1.34313,-1.08024 -2.37011,-1.580566 -1.00066,-0.52666 -1.8701,-0.921729 -2.60743,-1.185059 -0.71099,-0.263329 -1.65827,-0.579092 -2.84326,-0.947754 -0.18433,-0.05267 -0.44868,-0.131972 -0.79101,-0.237304 -1.02699,-0.315996 -1.86853,-0.592105 -2.52686,-0.829102 -0.63199,-0.236997 -1.29142,-0.526324 -1.97607,-0.868652 -0.65833,-0.342329 -1.14446,-0.737398 -1.46045,-1.185059 -0.316,-0.447661 -0.47461,-0.96169 -0.47461,-1.541016 0,-0.868988 0.48759,-1.566602 1.46191,-2.093261 0.97432,-0.52666 2.39599,-0.789551 4.26563,-0.789551 2.65963,0 5.4633,0.816574 8.4126,2.449219 l 2.48877,-3.950684 c -3.52862,-2.027639 -7.08278,-3.041016 -10.66407,-3.041016 z m 33.85108,0 c -3.66029,0 -6.49186,0.72405 -8.49317,2.172364 -1.8433,1.369314 -2.76416,3.17283 -2.76416,5.411133 0,1.079651 0.21002,2.05484 0.63135,2.923828 0.44766,0.868988 0.94847,1.57982 1.50147,2.132812 0.57932,0.52666 1.3959,1.052442 2.44921,1.579102 1.05332,0.526659 1.9213,0.908511 2.60596,1.145508 0.71099,0.236996 1.6994,0.554224 2.96338,0.949218 0.0527,0 0.0923,0.01175 0.11865,0.03809 0.0527,0.02633 0.0909,0.03955 0.11719,0.03955 0.0527,0 0.10554,0.01322 0.1582,0.03955 1.10599,0.342329 1.96222,0.63312 2.56787,0.870117 0.632,0.210664 1.30317,0.499991 2.01417,0.8686526 0.71099,0.3423286 1.22502,0.7506158 1.54101,1.2246094 0.34233,0.4476605 0.5127,0.9602254 0.5127,1.5395508 0,2.1593038 -2.07963,3.2402344 -6.24024,3.2402344 -2.87029,0 -5.8458,-0.84301 -8.92676,-2.5283203 l -2.56787,4.0678712 c 3.55495,2.05397192 7.3206,3.08056645 11.29688,3.08056645 2.13297,0 4.04223,-0.23645571 5.72754,-0.71044924 1.68531,-0.5003265 3.10697,-1.38299001 4.26562,-2.64697271 1.15865,-1.2639828 1.73877,-2.8692312 1.73877,-4.8178712 0,-1.000653 -0.21148,-1.9229699 -0.63281,-2.7656254 -0.42133,-0.842655 -0.92068,-1.527051 -1.5,-2.053711 -0.55299,-0.552992 -1.34313,-1.08024 -2.37012,-1.580566 -1.00065,-0.52666 -1.8701,-0.921729 -2.60742,-1.185059 -0.71099,-0.263329 -1.65828,-0.579092 -2.84326,-0.947754 -0.18433,-0.05267 -0.44869,-0.131972 -0.79102,-0.237304 -1.02698,-0.315996 -1.86853,-0.592105 -2.52685,-0.829102 -0.63199,-0.236997 -1.29142,-0.526324 -1.97608,-0.868652 -0.65832,-0.342329 -1.14445,-0.737398 -1.46045,-1.185059 -0.31599,-0.447661 -0.47461,-0.96169 -0.47461,-1.541016 0,-0.868988 0.4876,-1.566602 1.46192,-2.093261 0.97432,-0.52666 2.39598,-0.789551 4.26562,-0.789551 2.65963,0 5.46331,0.816574 8.4126,2.449219 l 2.48877,-3.950684 c -3.52862,-2.027639 -7.08278,-3.041016 -10.66406,-3.041016 z M 3.6337533,-27.610859 V -1.8124365e-5 H 20.341762 c 2.159303,0 4.002472,-0.763703195635 5.529785,-2.291015675635 1.553645,-1.5536455 2.330566,-3.42325 2.330566,-5.6088869 0,-1.6589773 -0.472911,-3.0542053 -1.420898,-4.1865233 -0.921654,-1.132318 -1.91006,-1.948893 -2.963379,-2.449219 0.789989,-0.500327 1.527257,-1.237594 2.211914,-2.211914 0.71099,-0.97432 1.066406,-2.093439 1.066406,-3.357422 0,-2.080305 -0.737267,-3.844167 -2.211914,-5.292481 -1.448313,-1.474646 -3.212176,-2.213379 -5.29248,-2.213379 z m 36.7749037,0 v 15.445313 c 0,3.5549517 1.26305,6.5965467 3.791015,9.1245122 2.527966,2.52796546 5.582779,3.79101569 9.164063,3.79101569 3.581284,0 6.636097,-1.26305023 9.164063,-3.79101569 2.527965,-2.5279655 3.79248,-5.5695605 3.79248,-9.1245122 v -15.445313 h -5.05664 v 15.445313 c 0,2.159304 -0.776921,4.002473 -2.330567,5.5297855 -1.527312,1.5273125 -3.383699,2.2910157 -5.569336,2.2910157 -2.159304,0 -4.015691,-0.7637032 -5.569336,-2.2910157 -1.527313,-1.5273125 -2.291016,-3.3704815 -2.291016,-5.5297855 v -15.445313 z m 72.757323,0 V -1.8124365e-5 h 5.09619 V -27.610859 Z m 18.88037,0 V -1.8124365e-5 h 5.0962 V -18.959491 l 16.3125,18.959472875635 h 3.71338 V -27.610859 H 152.0737 V -8.6499207 L 135.75973,-27.610859 Z m 38.98682,0 V -1.8124365e-5 h 22.2378 V -4.7798034 H 176.1279 v -6.6357426 h 14.18115 v -4.779785 H 176.1279 v -6.635742 h 17.14307 v -4.779786 z m 158.8667,0 V -1.8124365e-5 h 5.09473 V -8.4917176 h 8.33496 l 6.35889,8.491699475635 h 6.00439 L 348.58249,-9.4804871 c 1.65898,-0.7899889 2.98958,-1.9487619 3.99024,-3.4760739 1.00065,-1.527313 1.50146,-3.225086 1.50146,-5.094727 0,-2.633297 -0.94875,-4.884754 -2.84472,-6.754395 -1.89598,-1.869641 -4.17387,-2.805176 -6.8335,-2.805176 z m 74.6543,0 v 15.445313 c 0,3.5549517 1.26305,6.5965467 3.79102,9.1245122 2.52796,2.52796546 5.58278,3.79101569 9.16406,3.79101569 3.58129,0 6.6361,-1.26305023 9.16406,-3.79101569 2.52797,-2.5279655 3.79249,-5.5695605 3.79249,-9.1245122 v -15.445313 h -5.05665 v 15.445313 c 0,2.159304 -0.77692,4.002473 -2.33056,5.5297855 -1.52731,1.5273125 -3.3837,2.2910157 -5.56934,2.2910157 -2.1593,0 -4.01569,-0.7637032 -5.56933,-2.2910157 -1.52732,-1.5273125 -2.29102,-3.3704815 -2.29102,-5.5297855 v -15.445313 z m 39.14356,0 V -1.8124365e-5 h 5.09619 V -7.3857605 h 8.80811 c 2.81762,0 5.21301,-0.9884059 7.18798,-2.9633785 2.00131,-1.974974 3.00293,-4.357143 3.00293,-7.148438 0,-2.791295 -1.00162,-5.17493 -3.00293,-7.149903 -1.97497,-1.974973 -4.37036,-2.963379 -7.18798,-2.963379 z m -64.54248,4.346192 c 2.60696,0 4.83198,0.920852 6.67529,2.76416 1.86964,1.843308 2.80518,4.068329 2.80518,6.675293 0,2.606965 -0.93554,4.845203 -2.80518,6.7148441 -1.84331,1.8433082 -4.06833,2.7656251 -6.67529,2.7656251 -2.60697,0 -4.83199,-0.9223169 -6.6753,-2.7656251 -1.8433,-1.8696411 -2.76416,-4.1078791 -2.76416,-6.7148441 0,-2.606964 0.92086,-4.831985 2.76416,-6.675293 1.84331,-1.843308 4.06833,-2.76416 6.6753,-2.76416 z m -370.5835083,0.27539 h 9.9931643 c 0.895321,0 1.659024,0.330446 2.291016,0.98877 0.658324,0.631991 0.987304,1.407448 0.987304,2.329102 0,0.895321 -0.315762,1.659024 -0.947754,2.291015 -0.631991,0.605659 -1.408912,0.909668 -2.330566,0.909668 H 8.5717417 Z M 334.9946,-22.712421 h 9.24317 c 1.31664,0 2.43576,0.461158 3.35742,1.382812 0.92165,0.895322 1.38281,1.988005 1.38281,3.278321 0,1.290316 -0.46116,2.382999 -1.38281,3.27832 -0.92166,0.895321 -2.04078,1.343262 -3.35742,1.343262 h -9.24317 z m 113.79932,0 h 8.6499 c 1.44832,0 2.6864,0.51403 3.71338,1.541016 1.02699,1.026986 1.53955,2.251847 1.53955,3.673828 0,1.42198 -0.51256,2.645377 -1.53955,3.672363 -1.02698,1.000653 -2.26506,1.501465 -3.71338,1.501465 h -8.6499 z M 8.5717417,-12.007343 H 19.394008 c 1.026986,0 1.896431,0.355416 2.607422,1.066407 0.737323,0.71099 1.105957,1.5789707 1.105957,2.6059567 0,1.026986 -0.368634,1.9096495 -1.105957,2.6469728 -0.710991,0.7109902 -1.580436,1.0664062 -2.607422,1.0664062 H 8.5717417 Z"
         transform="matrix(1,0,0,-1,472.5562,349.9746)" />
    </g>
  </g>
</svg>
