<?xml version="1.0" encoding="UTF-8" standalone="no"?>
<!-- Created with Inkscape (http://www.inkscape.org/) -->

<svg
   version="1.1"
   id="svg148"
   width="739.47046"
   height="512"
   viewBox="0 0 739.47045 512"
   sodipodi:docname="MANUAL CORPORATIVO DGD B (1).pdf"
   xmlns:inkscape="http://www.inkscape.org/namespaces/inkscape"
   xmlns:sodipodi="http://sodipodi.sourceforge.net/DTD/sodipodi-0.dtd"
   xmlns="http://www.w3.org/2000/svg"
   xmlns:svg="http://www.w3.org/2000/svg">
  <defs
     id="defs152">
    <clipPath
       clipPathUnits="userSpaceOnUse"
       id="clipPath180">
      <path
         d="M 0,1080 H 1413.02 V 0 H 0 Z"
         id="path178" />
    </clipPath>
  </defs>
  <sodipodi:namedview
     id="namedview150"
     pagecolor="#505050"
     bordercolor="#ffffff"
     borderopacity="1"
     inkscape:showpageshadow="0"
     inkscape:pageopacity="0"
     inkscape:pagecheckerboard="1"
     inkscape:deskcolor="#505050"
     showgrid="false" />
  <g
     id="g156"
     inkscape:groupmode="layer"
     inkscape:label="Page 1"
     transform="matrix(1.3333333,0,0,-1.3333333,-627.88478,988.71735)">
    <g
       id="g4309"
       transform="matrix(1.1496825,0,0,1.1496825,-70.487509,-110.99524)">
      <path
         d="M 643.636,608.224 H 769.038 V 733.64 H 643.636 Z m 133.301,-7.9 H 635.736 v 141.214 h 141.201 z"
         style="fill:#f9b100;fill-opacity:1;fill-rule:nonzero;stroke:none"
         id="path172" />
      <g
         id="g174">
        <g
           id="g176"
           clip-path="url(#clipPath180)">
          <g
             id="g182"
             transform="translate(667.8545,711.3354)">
            <path
               d="m 0,0 c -1.103,0 -2.035,-0.932 -2.035,-2.035 v -49.838 c 0,-1.102 0.932,-2.035 2.035,-2.035 h 50.18 c 1.103,0 2.035,0.933 2.035,2.035 V -2.035 C 52.215,-0.932 51.283,0 50.18,0 Z M 50.18,-61.807 H 0 c -5.478,0 -9.935,4.456 -9.935,9.934 v 49.838 c 0,5.478 4.457,9.934 9.935,9.934 h 50.18 c 5.477,0 9.934,-4.456 9.934,-9.934 v -49.838 c 0,-5.478 -4.457,-9.934 -9.934,-9.934"
               style="fill:#f9b100;fill-opacity:1;fill-rule:nonzero;stroke:none"
               id="path184" />
          </g>
          <g
             id="g186"
             transform="translate(695.085,684.2046)">
            <path
               d="m 0,0 c -1.103,0 -2.035,-0.932 -2.035,-2.035 v -49.838 c 0,-1.102 0.932,-2.034 2.035,-2.034 h 50.18 c 1.103,0 2.035,0.932 2.035,2.034 V -2.035 C 52.215,-0.932 51.283,0 50.18,0 Z M 50.18,-61.807 H 0 c -5.478,0 -9.935,4.456 -9.935,9.934 v 49.838 c 0,5.478 4.457,9.934 9.935,9.934 h 50.18 c 5.477,0 9.934,-4.456 9.934,-9.934 v -49.838 c 0,-5.478 -4.457,-9.934 -9.934,-9.934"
               style="fill:#f9b100;fill-opacity:1;fill-rule:nonzero;stroke:none"
               id="path188" />
          </g>
        </g>
      </g>
      <path
         id="text192"
         style="font-variant:normal;font-weight:normal;font-stretch:normal;font-size:215.452px;font-family:Conneqt;-inkscape-font-specification:ConneqtRegular;writing-mode:lr-tb;fill:#d39100;fill-opacity:1;fill-rule:nonzero;stroke:none"
         d="m 259.18801,-154.69433 c -21.83244,0 -40.50456,7.75652 -56.01709,23.26905 -15.51252,15.51253 -23.26904,34.184641 -23.26904,56.017088 0,21.832447 7.75652,40.576261 23.26904,56.232423 15.51253,15.5125286 34.18465,23.269044 56.01709,23.269044 22.55062,0 41.00765,-8.0433055 55.3711,-24.130372 13.21438,-14.794355 19.82227,-33.251379 19.82227,-55.371095 0,-3.878132 -0.1434,-6.822125 -0.43067,-8.833008 h -69.5918 v 26.285157 h 39.85987 c -2.87269,10.054416 -8.1871,18.312814 -15.94336,24.776368 -7.61263,6.319919 -17.30937,9.480469 -29.08741,9.480469 -14.21981,0 -26.35574,-5.027615 -36.41015,-15.082032 -10.05442,-10.198051 -15.08203,-22.407136 -15.08203,-36.626954 0,-14.219817 5.02761,-26.357208 15.08203,-36.411618 10.05441,-10.19805 22.19034,-15.29737 36.41015,-15.29737 8.18717,0 15.87199,1.86707 23.05372,5.60157 7.32536,3.73449 13.4299,8.83381 18.31347,15.29736 l 22.83838,-15.94336 c -7.46899,-10.19805 -16.87748,-18.16966 -28.22461,-23.91504 -11.34712,-5.74538 -23.34112,-8.61768 -35.98096,-8.61768 z m -239.365724,4.09278 V 5.0142811e-4 h 64.850099 c 20.396105,0 37.847895,-7.32633022811 52.354985,-21.97705142811 14.50708,-14.794355 21.76025,-32.604636 21.76025,-53.431642 0,-20.827005 -7.25317,-38.565588 -21.76025,-53.216308 -14.36345,-14.65072 -31.81525,-21.97705 -52.354985,-21.97705 z m 343.429694,0 V 5.0142811e-4 h 64.85157 c 20.3961,0 37.84789,-7.32633022811 52.35498,-21.97705142811 14.50708,-14.794355 21.76025,-32.604636 21.76025,-53.431642 0,-20.827005 -7.25317,-38.565588 -21.76025,-53.216308 -14.36345,-14.65072 -31.81525,-21.97705 -52.35498,-21.97705 z m -315.637213,26.71728 h 36.19629 c 13.070741,0 24.202903,4.73936 33.395513,14.21924 9.33624,9.47988 14.0039,20.898828 14.0039,34.256838 0,13.358011 -4.66766,24.776959 -14.0039,34.256837 -9.19261,9.479878 -20.324772,14.219239 -33.395513,14.219239 h -36.19629 z m 343.431163,0 h 36.19482 c 13.07074,0 24.2029,4.73936 33.39551,14.21924 9.33625,9.47988 14.00391,20.898828 14.00391,34.256838 0,13.358011 -4.66766,24.776959 -14.00391,34.256837 -9.19261,9.479878 -20.32477,14.219239 -33.39551,14.219239 h -36.19482 z"
         transform="matrix(1,0,0,-1,451.0913,411.626)" />
    </g>
  </g>
</svg>
